<?xml version="1.0" encoding="utf-8"?>
<!-- Generator: Adobe Illustrator 16.0.3, SVG Export Plug-In . SVG Version: 6.00 Build 0)  -->
<!DOCTYPE svg PUBLIC "-//W3C//DTD SVG 1.1//EN" "http://www.w3.org/Graphics/SVG/1.1/DTD/svg11.dtd">
<svg version="1.1" xmlns="http://www.w3.org/2000/svg" xmlns:xlink="http://www.w3.org/1999/xlink" x="0px" y="0px"
	 width="387.637px" height="66.443px" viewBox="0 0 387.637 66.443" enable-background="new 0 0 387.637 66.443"
	 xml:space="preserve">
<g id="Calque_1">
</g>
<g id="Mode_Isolation">
	<g>
		<g>
			<g>
				<g>
					<g>
						<path fill="#585758" d="M75.285,55.179c0.595,0.694,1.4,1.041,2.416,1.041s1.821-0.347,2.416-1.041s0.892-1.636,0.892-2.825
							v-7.192h2.193v7.286c0,1.871-0.515,3.311-1.542,4.321c-1.029,1.01-2.348,1.515-3.959,1.515s-2.93-0.504-3.958-1.515
							c-1.029-1.01-1.542-2.45-1.542-4.321v-7.286h2.193v7.192C74.393,53.543,74.69,54.485,75.285,55.179z"/>
						<path fill="#585758" d="M87.867,52.8v5.353h-2.082v-9.888h2.082v1.803c0.334-0.607,0.796-1.084,1.385-1.431
							c0.588-0.347,1.223-0.521,1.905-0.521c1.115,0,2.017,0.341,2.704,1.022c0.688,0.682,1.032,1.667,1.032,2.955v6.059h-2.082
							v-5.427c0-1.822-0.756-2.732-2.268-2.732c-0.719,0-1.344,0.239-1.877,0.716C88.133,51.187,87.867,51.883,87.867,52.8z"/>
						<path fill="#585758" d="M97.457,46.295c-0.26-0.26-0.391-0.57-0.391-0.93c0-0.359,0.13-0.669,0.391-0.929
							c0.26-0.26,0.569-0.39,0.929-0.39c0.359,0,0.669,0.13,0.929,0.39s0.39,0.57,0.39,0.929c0,0.36-0.13,0.669-0.39,0.93
							s-0.57,0.39-0.929,0.39C98.026,46.686,97.717,46.556,97.457,46.295z M99.408,58.153h-2.082v-9.888h2.082V58.153z"/>
						<path fill="#585758" d="M104.575,58.153l-3.977-9.888h2.156l3.011,7.472l3.011-7.472h2.156l-3.977,9.888H104.575z"/>
						<path fill="#585758" d="M111.572,57.893c-0.266-0.272-0.399-0.601-0.399-0.985c0-0.384,0.133-0.709,0.399-0.976
							c0.267-0.266,0.592-0.399,0.976-0.399c0.384,0,0.712,0.133,0.985,0.399c0.272,0.267,0.409,0.592,0.409,0.976
							c0,0.384-0.137,0.712-0.409,0.985s-0.601,0.409-0.985,0.409C112.164,58.302,111.838,58.165,111.572,57.893z"/>
						<path fill="#585758" d="M130.111,51.833h2.193v4.442c-1.227,1.351-2.98,2.026-5.26,2.026c-1.92,0-3.528-0.632-4.823-1.896
							c-1.295-1.264-1.942-2.862-1.942-4.795c0-1.933,0.66-3.543,1.979-4.833c1.319-1.289,2.915-1.933,4.786-1.933
							c1.871,0,3.426,0.545,4.665,1.635l-1.171,1.673c-0.508-0.434-1.02-0.734-1.533-0.901c-0.514-0.167-1.112-0.251-1.793-0.251
							c-1.313,0-2.416,0.425-3.308,1.273c-0.892,0.849-1.338,1.964-1.338,3.346c0,1.382,0.434,2.49,1.301,3.327
							s1.917,1.254,3.15,1.254s2.264-0.266,3.095-0.799V51.833z"/>
						<path fill="#585758" d="M139.608,50.217c-1.029,0-1.803,0.334-2.323,1.003c-0.521,0.669-0.781,1.568-0.781,2.695v4.237h-2.082
							v-9.888h2.082v1.989c0.334-0.619,0.79-1.127,1.366-1.524s1.186-0.601,1.831-0.613l0.019,2.1
							C139.682,50.217,139.645,50.217,139.608,50.217z"/>
						<path fill="#585758" d="M150.536,54.12h-7.75c0.049,0.719,0.378,1.298,0.985,1.738c0.607,0.44,1.301,0.66,2.082,0.66
							c1.239,0,2.181-0.39,2.825-1.171l1.189,1.301c-1.066,1.103-2.453,1.654-4.163,1.654c-1.388,0-2.568-0.462-3.541-1.385
							s-1.459-2.162-1.459-3.717c0-1.555,0.496-2.791,1.487-3.708s2.159-1.375,3.503-1.375c1.344,0,2.487,0.406,3.429,1.217
							c0.942,0.812,1.413,1.93,1.413,3.354V54.12z M142.786,52.484h5.668c0-0.83-0.26-1.468-0.78-1.915
							c-0.521-0.446-1.162-0.669-1.924-0.669s-1.447,0.232-2.054,0.697C143.089,51.063,142.786,51.691,142.786,52.484z"/>
						<path fill="#585758" d="M154.438,52.8v5.353h-2.082v-9.888h2.082v1.803c0.334-0.607,0.796-1.084,1.385-1.431
							c0.588-0.347,1.223-0.521,1.905-0.521c1.115,0,2.017,0.341,2.704,1.022c0.688,0.682,1.032,1.667,1.032,2.955v6.059h-2.082
							v-5.427c0-1.822-0.756-2.732-2.268-2.732c-0.719,0-1.344,0.239-1.877,0.716C154.705,51.187,154.438,51.883,154.438,52.8z"/>
						<path fill="#585758" d="M172.169,56.824c-0.991,0.985-2.23,1.478-3.717,1.478c-1.487,0-2.726-0.493-3.717-1.478
							c-0.991-0.985-1.487-2.189-1.487-3.615c0-1.425,0.496-2.63,1.487-3.615s2.23-1.478,3.717-1.478
							c1.487,0,2.726,0.493,3.717,1.478s1.487,2.19,1.487,3.615C173.656,54.634,173.16,55.839,172.169,56.824z M166.212,55.542
							c0.588,0.601,1.335,0.901,2.239,0.901s1.651-0.3,2.24-0.901c0.588-0.601,0.883-1.378,0.883-2.333s-0.294-1.731-0.883-2.333
							c-0.588-0.601-1.335-0.901-2.24-0.901s-1.651,0.301-2.239,0.901c-0.589,0.601-0.883,1.378-0.883,2.333
							S165.624,54.941,166.212,55.542z"/>
						<path fill="#585758" d="M180.848,48.117c1.326,0,2.459,0.458,3.401,1.375c0.941,0.917,1.412,2.137,1.412,3.661
							s-0.468,2.763-1.403,3.717c-0.936,0.954-2.026,1.431-3.271,1.431c-1.245,0-2.363-0.545-3.354-1.636v1.487h-2.082V44.362h2.082
							v5.631C178.451,48.743,179.522,48.117,180.848,48.117z M177.596,53.228c0,0.942,0.285,1.713,0.855,2.314
							c0.57,0.601,1.264,0.901,2.082,0.901s1.53-0.297,2.137-0.892s0.911-1.366,0.911-2.314s-0.297-1.734-0.892-2.36
							c-0.595-0.625-1.307-0.938-2.137-0.938s-1.53,0.313-2.1,0.938C177.88,51.502,177.596,52.286,177.596,53.228z"/>
						<path fill="#585758" d="M189.658,58.153h-2.082V44.362h2.082V58.153z"/>
						<path fill="#585758" d="M201.403,54.12h-7.75c0.049,0.719,0.378,1.298,0.985,1.738c0.607,0.44,1.301,0.66,2.082,0.66
							c1.239,0,2.181-0.39,2.825-1.171l1.189,1.301c-1.066,1.103-2.453,1.654-4.163,1.654c-1.388,0-2.568-0.462-3.541-1.385
							s-1.459-2.162-1.459-3.717c0-1.555,0.496-2.791,1.487-3.708s2.159-1.375,3.503-1.375c1.344,0,2.487,0.406,3.429,1.217
							c0.942,0.812,1.413,1.93,1.413,3.354V54.12z M193.653,52.484h5.668c0-0.83-0.26-1.468-0.78-1.915
							c-0.521-0.446-1.162-0.669-1.924-0.669s-1.447,0.232-2.054,0.697C193.957,51.063,193.653,51.691,193.653,52.484z"/>
						<path fill="#585758" d="M209.989,55.198l-1.301,2.955h-2.342l5.724-12.991h2.342l5.725,12.991h-2.342l-1.301-2.955H209.989z
							 M215.602,53.172l-2.36-5.353l-2.36,5.353H215.602z"/>
						<path fill="#585758" d="M223.259,58.153h-2.082V44.362h2.082V58.153z"/>
						<path fill="#585758" d="M231.102,48.117c1.326,0,2.459,0.458,3.401,1.375c0.941,0.917,1.412,2.137,1.412,3.661
							s-0.468,2.763-1.403,3.717c-0.936,0.954-2.026,1.431-3.271,1.431c-1.245,0-2.363-0.545-3.354-1.636v5.092h-2.082V48.265h2.082
							v1.729C228.705,48.743,229.776,48.117,231.102,48.117z M227.85,53.228c0,0.942,0.285,1.713,0.855,2.314
							c0.57,0.601,1.264,0.901,2.082,0.901s1.53-0.297,2.137-0.892s0.911-1.366,0.911-2.314s-0.297-1.734-0.892-2.36
							c-0.595-0.625-1.307-0.938-2.137-0.938s-1.53,0.313-2.1,0.938C228.134,51.502,227.85,52.286,227.85,53.228z"/>
						<path fill="#585758" d="M247.029,54.12h-7.75c0.049,0.719,0.378,1.298,0.985,1.738c0.607,0.44,1.301,0.66,2.082,0.66
							c1.239,0,2.181-0.39,2.825-1.171l1.189,1.301c-1.066,1.103-2.453,1.654-4.163,1.654c-1.388,0-2.568-0.462-3.541-1.385
							s-1.459-2.162-1.459-3.717c0-1.555,0.496-2.791,1.487-3.708s2.159-1.375,3.503-1.375c1.344,0,2.487,0.406,3.429,1.217
							c0.942,0.812,1.413,1.93,1.413,3.354V54.12z M239.279,52.484h5.668c0-0.83-0.26-1.468-0.78-1.915
							c-0.521-0.446-1.162-0.669-1.924-0.669s-1.447,0.232-2.054,0.697C239.583,51.063,239.279,51.691,239.279,52.484z"/>
						<path fill="#585758" d="M255.895,55.198c0,0.942-0.341,1.694-1.022,2.258c-0.681,0.564-1.555,0.846-2.62,0.846
							c-0.719,0-1.465-0.13-2.24-0.391s-1.459-0.625-2.054-1.097l1.003-1.617c1.152,0.867,2.268,1.301,3.346,1.301
							c0.471,0,0.842-0.108,1.115-0.325c0.272-0.216,0.409-0.492,0.409-0.827c0-0.495-0.657-0.941-1.97-1.338
							c-0.099-0.037-0.173-0.062-0.223-0.074c-2.057-0.558-3.085-1.487-3.085-2.788c0-0.917,0.356-1.651,1.069-2.202
							c0.712-0.551,1.638-0.827,2.778-0.827c1.14,0,2.218,0.334,3.234,1.003l-0.781,1.543c-0.805-0.533-1.679-0.799-2.62-0.799
							c-0.496,0-0.899,0.09-1.208,0.27s-0.464,0.449-0.464,0.808c0,0.323,0.161,0.558,0.483,0.707
							c0.223,0.111,0.536,0.217,0.938,0.316c0.402,0.099,0.759,0.198,1.068,0.297s0.61,0.211,0.901,0.334
							c0.291,0.124,0.604,0.297,0.939,0.521C255.56,53.562,255.895,54.256,255.895,55.198z"/>
					</g>
				</g>
				<g>
					<g>
						<path fill="#E5322C" d="M81.212,18.404c-3.179,0-5.642,2.463-5.642,5.695c0,3.231,2.463,5.722,5.642,5.722
							c1.669,0,3.497-0.848,4.821-2.172l2.463,2.676c-1.96,2.013-4.794,3.311-7.497,3.311c-5.536,0-9.721-4.106-9.721-9.483
							c0-5.351,4.265-9.377,9.88-9.377c2.675,0,5.483,1.192,7.311,3.073l-2.437,2.967C84.762,19.357,82.935,18.404,81.212,18.404z"
							/>
						<path fill="#E5322C" d="M92.338,38.774c-1.51,0-2.702-0.424-3.867-1.377l1.722-2.94c0.636,0.53,1.192,0.769,1.854,0.769
							c0.848,0,1.483-0.424,1.881-1.271l0.397-0.795l-5.907-13.96h4.211L96.365,29l3.364-9.801h4.08l-6.251,15.841
							C96.55,37.556,94.802,38.774,92.338,38.774z"/>
						<path fill="#E5322C" d="M120.735,26.403c0,4.318-2.623,7.205-6.623,7.205c-1.986,0-3.549-0.794-4.583-2.225v2.066h-4.079
							V13.795h4.079v7.496c1.007-1.43,2.57-2.225,4.503-2.225C118.034,19.066,120.735,22.006,120.735,26.403z M116.603,26.271
							c0-2.278-1.431-3.92-3.523-3.92c-2.093,0-3.55,1.616-3.55,3.92c0,2.358,1.457,3.947,3.55,3.947
							C115.172,30.218,116.603,28.602,116.603,26.271z"/>
						<path fill="#E5322C" d="M136.285,27.569H126.06c0.477,1.801,1.854,2.86,3.682,2.86c1.351,0,2.623-0.529,3.603-1.51
							l2.146,2.172c-1.431,1.589-3.523,2.516-6.093,2.516c-4.556,0-7.443-2.914-7.443-7.231c0-4.397,2.993-7.311,7.337-7.311
							C134.298,19.066,136.629,22.377,136.285,27.569z M132.47,25.159c-0.053-1.881-1.271-3.099-3.152-3.099
							c-1.801,0-3.02,1.218-3.337,3.099H132.47z"/>
						<path fill="#E5322C" d="M147.516,19.04v3.841c-2.914-0.265-4.715,1.298-4.715,3.708v6.861h-4.079V19.198h4.079v2.57
							C143.781,20.02,145.397,19.066,147.516,19.04z"/>
						<path fill="#E5322C" d="M154.112,22.006c-0.954,0-1.642,0.318-1.642,1.06c0,2.146,7.523,1.06,7.496,6.092
							c0,2.914-2.569,4.45-5.801,4.45c-2.305,0-4.556-0.688-6.172-1.986l1.324-2.755c1.483,1.139,3.391,1.774,4.954,1.774
							c1.033,0,1.801-0.344,1.801-1.112c0-2.278-7.391-1.06-7.391-6.066c0-2.94,2.517-4.45,5.616-4.45
							c1.96,0,3.973,0.583,5.563,1.589l-1.404,2.781C156.894,22.51,155.304,22.006,154.112,22.006z"/>
						<path fill="#E5322C" d="M175.542,27.569h-10.225c0.477,1.801,1.854,2.86,3.682,2.86c1.351,0,2.623-0.529,3.603-1.51
							l2.146,2.172c-1.431,1.589-3.523,2.516-6.093,2.516c-4.556,0-7.443-2.914-7.443-7.231c0-4.397,2.993-7.311,7.337-7.311
							C173.556,19.066,175.887,22.377,175.542,27.569z M171.728,25.159c-0.053-1.881-1.271-3.099-3.152-3.099
							c-1.801,0-3.02,1.218-3.337,3.099H171.728z"/>
						<path fill="#E5322C" d="M184.231,22.536c-1.986,0-3.391,1.536-3.391,3.814c0,2.305,1.404,3.867,3.391,3.867
							c1.457,0,2.596-0.556,3.312-1.668l2.808,1.907c-1.192,1.987-3.417,3.152-6.331,3.152c-4.317,0-7.258-2.914-7.258-7.231
							c0-4.371,2.94-7.311,7.311-7.311c2.729,0,4.9,1.086,6.172,2.994l-2.755,1.986C186.721,23.092,185.635,22.51,184.231,22.536z"
							/>
						<path fill="#E5322C" d="M206.164,19.198V33.45h-4.053v-2.517c-0.98,1.801-2.623,2.675-4.768,2.675
							c-3.152,0-5.139-2.092-5.139-5.457v-8.954h4.079v7.788c0,1.801,1.033,2.887,2.675,2.887c1.96-0.026,3.152-1.563,3.152-3.629
							v-7.046H206.164z"/>
						<path fill="#E5322C" d="M218.641,19.04v3.841c-2.914-0.265-4.715,1.298-4.715,3.708v6.861h-4.079V19.198h4.079v2.57
							C214.906,20.02,216.522,19.066,218.641,19.04z"/>
						<path fill="#E5322C" d="M224.681,19.198V33.45h-4.08V19.198H224.681z M224.627,15.146c0,1.166-0.821,2.04-1.986,2.04
							s-1.987-0.875-1.987-2.04c0-1.192,0.821-2.04,1.987-2.04S224.627,13.954,224.627,15.146z"/>
						<path fill="#E5322C" d="M237.157,32.655c-1.06,0.609-2.384,0.98-3.708,0.98c-2.543,0-4.477-1.457-4.477-4.397v-6.596h-1.987
							v-2.808h1.987v-3.92h4.053v3.92h3.867v2.834h-3.867v5.881c0,1.192,0.503,1.668,1.377,1.642c0.53,0,1.166-0.186,1.907-0.53
							L237.157,32.655z"/>
						<path fill="#E5322C" d="M241.051,38.774c-1.51,0-2.702-0.424-3.868-1.377l1.722-2.94c0.636,0.53,1.192,0.769,1.854,0.769
							c0.848,0,1.483-0.424,1.88-1.271l0.397-0.795l-5.907-13.96h4.212L245.078,29l3.364-9.801h4.08l-6.251,15.841
							C245.263,37.556,243.515,38.774,241.051,38.774z"/>
						<path fill="#E5322C" d="M265.978,14.907V33.45h-4.186V14.907H265.978z"/>
						<path fill="#E5322C" d="M283.964,24.496v8.954h-4.08v-7.761c0-1.801-1.06-2.914-2.808-2.914
							c-2.04,0.026-3.258,1.563-3.258,3.656v7.02h-4.079V19.198h4.079v2.49c1.007-1.775,2.702-2.623,4.927-2.649
							C281.924,19.04,283.964,21.159,283.964,24.496z"/>
						<path fill="#E5322C" d="M291.859,22.006c-0.954,0-1.643,0.318-1.643,1.06c0,2.146,7.522,1.06,7.496,6.092
							c0,2.914-2.569,4.45-5.801,4.45c-2.305,0-4.557-0.688-6.172-1.986l1.324-2.755c1.483,1.139,3.391,1.774,4.953,1.774
							c1.033,0,1.802-0.344,1.802-1.112c0-2.278-7.391-1.06-7.391-6.066c0-2.94,2.517-4.45,5.615-4.45
							c1.961,0,3.974,0.583,5.563,1.589l-1.404,2.781C294.64,22.51,293.05,22.006,291.859,22.006z"/>
						<path fill="#E5322C" d="M308.998,32.655c-1.06,0.609-2.384,0.98-3.709,0.98c-2.543,0-4.477-1.457-4.477-4.397v-6.596h-1.986
							v-2.808h1.986v-3.92h4.053v3.92h3.868v2.834h-3.868v5.881c0,1.192,0.504,1.668,1.378,1.642c0.529,0,1.165-0.186,1.907-0.53
							L308.998,32.655z"/>
						<path fill="#E5322C" d="M315.276,19.198V33.45h-4.08V19.198H315.276z M315.222,15.146c0,1.166-0.821,2.04-1.986,2.04
							c-1.166,0-1.987-0.875-1.987-2.04c0-1.192,0.821-2.04,1.987-2.04C314.401,13.106,315.222,13.954,315.222,15.146z"/>
						<path fill="#E5322C" d="M327.752,32.655c-1.06,0.609-2.384,0.98-3.709,0.98c-2.543,0-4.477-1.457-4.477-4.397v-6.596h-1.986
							v-2.808h1.986v-3.92h4.053v3.92h3.868v2.834h-3.868v5.881c0,1.192,0.504,1.668,1.378,1.642c0.529,0,1.165-0.186,1.907-0.53
							L327.752,32.655z"/>
						<path fill="#E5322C" d="M343.487,19.198V33.45h-4.053v-2.517c-0.98,1.801-2.622,2.675-4.768,2.675
							c-3.152,0-5.14-2.092-5.14-5.457v-8.954h4.079v7.788c0,1.801,1.033,2.887,2.676,2.887c1.96-0.026,3.152-1.563,3.152-3.629
							v-7.046H343.487z"/>
						<path fill="#E5322C" d="M355.991,32.655c-1.06,0.609-2.384,0.98-3.709,0.98c-2.543,0-4.477-1.457-4.477-4.397v-6.596h-1.986
							v-2.808h1.986v-3.92h4.053v3.92h3.868v2.834h-3.868v5.881c0,1.192,0.504,1.668,1.378,1.642c0.529,0,1.165-0.186,1.907-0.53
							L355.991,32.655z"/>
						<path fill="#E5322C" d="M371.195,27.569H360.97c0.477,1.801,1.854,2.86,3.682,2.86c1.352,0,2.623-0.529,3.603-1.51
							l2.146,2.172c-1.43,1.589-3.522,2.516-6.092,2.516c-4.557,0-7.444-2.914-7.444-7.231c0-4.397,2.994-7.311,7.338-7.311
							C369.208,19.066,371.54,22.377,371.195,27.569z M367.38,25.159c-0.053-1.881-1.271-3.099-3.152-3.099
							c-1.801,0-3.02,1.218-3.337,3.099H367.38z"/>
					</g>
				</g>
			</g>
		</g>
		<g>
			<path fill="#4797AC" d="M48.946,8.225c-4.895,0-13.705-1.176-22.515-8.225C19.383,7.048,9.985,8.225,4.503,8.225
				C1.763,8.225,0,7.929,0,7.929v4.713h5.071l7.754,8.146h9.858c0.359-1.698,1.868-2.978,3.67-2.978
				c2.069,0,3.753,1.685,3.753,3.754c0,1.397-0.776,2.603-1.911,3.249c1.416,0.821,2.387,2.558,2.387,4.583v2.505h-8.458v-2.505
				c0-2.025,0.972-3.761,2.387-4.583c-0.919-0.522-1.604-1.408-1.828-2.472H12.16l-7.754-8.146H0v5.183h2.393l16.289,15.896h21.075
				c0.358-1.697,1.867-2.976,3.669-2.976c2.069,0,3.753,1.684,3.753,3.753c0,2.07-1.684,3.753-3.753,3.753
				c-1.803,0-3.311-1.278-3.67-2.976H18.049L1.759,20.933H0v2.132C0,35.108,3.813,43.818,8.539,50h7.699l4.395-6.278h-4.043
				c-0.231,1.849-1.795,3.289-3.706,3.289c-2.07,0-3.753-1.683-3.753-3.752c0-2.07,1.684-3.754,3.753-3.754
				c1.687,0,3.101,1.127,3.572,2.663h12.042c0.47-1.536,1.884-2.663,3.572-2.663c2.07,0,3.754,1.684,3.754,3.753
				c0,1.396-0.776,2.603-1.912,3.249c1.416,0.821,2.387,2.558,2.387,4.582v2.506H27.84v-2.506c0-2.024,0.971-3.76,2.387-4.582
				c-1.005-0.572-1.713-1.588-1.863-2.786h-5.835l-5.482,7.831H9.791c7.525,8.889,16.641,11.881,16.641,11.881
				s26.431-8.652,26.431-40.369V7.929C52.862,7.929,51.394,8.225,48.946,8.225z"/>
			<path fill="#FFFFFF" d="M12.16,22.342h10.524c0.225,1.064,0.909,1.95,1.828,2.472c-1.416,0.821-2.387,2.558-2.387,4.583v2.505
				h8.458v-2.505c0-2.025-0.971-3.761-2.387-4.583c1.134-0.646,1.911-1.852,1.911-3.249c0-2.069-1.684-3.754-3.753-3.754
				c-1.803,0-3.311,1.28-3.67,2.978h-9.858l-7.754-8.146H0v1.554h4.405L12.16,22.342z M26.431,19.263
				c1.31,0,2.372,1.062,2.372,2.372c0,1.309-1.062,2.371-2.372,2.371s-2.372-1.062-2.372-2.371
				C24.059,20.325,25.122,19.263,26.431,19.263z"/>
			<path fill="#FFFFFF" d="M18.049,36.83h21.706c0.359,1.698,1.867,2.976,3.67,2.976c2.069,0,3.753-1.683,3.753-3.753
				c0-2.069-1.684-3.753-3.753-3.753c-1.803,0-3.311,1.279-3.669,2.976H18.682L2.393,19.379H0v1.553h1.759L18.049,36.83z
				 M43.464,33.563c1.31,0,2.372,1.062,2.372,2.372s-1.063,2.371-2.372,2.371s-2.372-1.061-2.372-2.371S42.154,33.563,43.464,33.563
				z"/>
			<path fill="#FFFFFF" d="M22.529,43.722h5.835c0.15,1.198,0.858,2.213,1.863,2.786c-1.416,0.821-2.387,2.558-2.387,4.582v2.506
				h8.458v-2.506c0-2.024-0.971-3.76-2.387-4.582c1.136-0.646,1.912-1.853,1.912-3.249c0-2.069-1.684-3.753-3.754-3.753
				c-1.688,0-3.102,1.127-3.572,2.663H16.456c-0.471-1.536-1.885-2.663-3.572-2.663c-2.07,0-3.753,1.684-3.753,3.754
				c0,2.069,1.684,3.752,3.753,3.752c1.911,0,3.475-1.44,3.706-3.289h4.043L16.238,50H8.539c0.411,0.537,0.829,1.053,1.252,1.553
				h7.256L22.529,43.722z M32.058,40.857c1.31,0,2.371,1.063,2.371,2.372c0,1.31-1.061,2.372-2.371,2.372s-2.371-1.062-2.371-2.372
				C29.687,41.919,30.748,40.857,32.058,40.857z M12.911,45.6c-1.31,0-2.371-1.062-2.371-2.372c0-1.309,1.062-2.372,2.371-2.372
				c1.31,0,2.372,1.063,2.372,2.372C15.283,44.538,14.221,45.6,12.911,45.6z"/>
			<circle fill="#BA9271" cx="26.431" cy="21.635" r="2.372"/>
			<circle fill="#BA9271" cx="43.464" cy="35.934" r="2.371"/>
			<circle fill="#BA9271" cx="12.911" cy="43.229" r="2.372"/>
			<circle fill="#BA9271" cx="32.058" cy="43.229" r="2.372"/>
		</g>
	</g>
</g>
</svg>
